<svg width="24" height="25" viewBox="0 0 24 25" fill="none" xmlns="http://www.w3.org/2000/svg">
<path d="M21 21.5L16.657 17.157M16.657 17.157C17.3998 16.4141 17.9891 15.5322 18.3912 14.5616C18.7932 13.5909 19.0002 12.5506 19.0002 11.5C19.0002 10.4494 18.7932 9.40911 18.3912 8.43848C17.9891 7.46785 17.3998 6.58591 16.657 5.84302C15.9141 5.10014 15.0321 4.51084 14.0615 4.1088C13.0909 3.70675 12.0506 3.49982 11 3.49982C9.94936 3.49982 8.90905 3.70675 7.93842 4.1088C6.96779 4.51084 6.08585 5.10014 5.34296 5.84302C3.84263 7.34335 2.99976 9.37824 2.99976 11.5C2.99976 13.6218 3.84263 15.6567 5.34296 17.157C6.84329 18.6574 8.87818 19.5002 11 19.5002C13.1217 19.5002 15.1566 18.6574 16.657 17.157Z" stroke="#2B8137" stroke-width="2" stroke-linecap="round" stroke-linejoin="round"/>
</svg>
